<svg width="2709" height="1547" viewBox="0 0 2709 1547" fill="none" xmlns="http://www.w3.org/2000/svg">
<path d="M942.459 420.115C1016.17 420.115 1076.47 359.808 1076.47 286.1C1076.47 212.392 1016.17 152.086 942.459 152.086C868.752 152.086 808.446 212.392 808.446 286.1C808.446 359.808 868.752 420.115 942.459 420.115ZM823.523 1276.13C823.523 1354.86 885.504 1395.07 942.459 1395.07C1002.76 1395.07 1061.4 1353.19 1061.4 1276.13V614.436C1061.4 537.377 1002.76 495.498 942.459 495.498C883.828 495.498 823.523 537.377 823.523 614.436V1276.13Z" fill="#8A61FF"/>
<path d="M2304.53 994.251C2304.53 1067.96 2244.22 1128.27 2170.52 1128.27C2096.81 1128.27 2036.5 1067.96 2036.5 994.251C2036.5 920.543 2096.81 860.237 2170.52 860.237C2244.22 860.237 2304.53 920.543 2304.53 994.251Z" fill="#8A61FF"/>
<path d="M404.222 539.715C404.222 473.937 457.545 420.613 523.323 420.613C589.101 420.613 642.424 473.937 642.424 539.715V1008.91C642.424 1074.69 589.101 1128.01 523.323 1128.01C457.545 1128.01 404.222 1074.69 404.222 1008.91V539.715Z" fill="#8A61FF"/>
<path d="M2050.76 539.43C2050.76 473.809 2103.96 420.613 2169.58 420.613C2235.2 420.613 2288.39 473.809 2288.39 539.43V655.871C2288.39 721.492 2235.2 774.688 2169.58 774.688C2103.96 774.688 2050.76 721.492 2050.76 655.871V539.43Z" fill="#8A61FF"/>
<path d="M1646.79 270.903C1646.79 205.282 1699.98 152.086 1765.6 152.086C1831.22 152.086 1884.42 205.282 1884.42 270.903V1276.1C1884.42 1341.72 1831.22 1394.91 1765.6 1394.91C1699.98 1394.91 1646.79 1341.72 1646.79 1276.1V270.903Z" fill="#8A61FF"/>
<path d="M1242.81 118.817C1242.81 53.1962 1296.01 0 1361.63 0C1427.25 0 1480.44 53.1963 1480.44 118.817V1428.18C1480.44 1493.8 1427.25 1547 1361.63 1547C1296.01 1547 1242.81 1493.8 1242.81 1428.18V118.817Z" fill="#8A61FF"/>
<path d="M0 632.393C0 566.614 53.3233 513.29 119.101 513.29C184.879 513.29 238.202 566.614 238.202 632.393V913.908C238.202 979.686 184.879 1033.01 119.101 1033.01C53.3233 1033.01 0 979.686 0 913.908V632.393Z" fill="#8A61FF"/>
<path d="M2471.37 696.269C2471.37 630.648 2524.56 577.452 2590.18 577.452C2655.8 577.452 2709 630.648 2709 696.269V850.731C2709 916.352 2655.8 969.548 2590.18 969.548C2524.56 969.548 2471.37 916.352 2471.37 850.731V696.269Z" fill="#8A61FF"/>
</svg>
