<svg width="1246" height="346" viewBox="0 0 1246 346" fill="none" xmlns="http://www.w3.org/2000/svg">
<path d="M23 23.0001L23 23" stroke="white" stroke-width="45" stroke-linecap="round"/>
<path d="M23 83.0001L23 323" stroke="white" stroke-width="45" stroke-linecap="round"/>
<path d="M143 78L143 323" stroke="white" stroke-width="45" stroke-linecap="round"/>
<path d="M263 23.0001L263 23" stroke="white" stroke-width="45" stroke-linecap="round"/>
<path d="M263 83.0001L263 323" stroke="white" stroke-width="45" stroke-linecap="round"/>
<path d="M383 49L383 323" stroke="white" stroke-width="45" stroke-linecap="round"/>
<path d="M503 67L503 323" stroke="white" stroke-width="45" stroke-linecap="round"/>
<path d="M623 23.0001L623 23" stroke="white" stroke-width="45" stroke-linecap="round"/>
<path d="M623 83.0001L623 323" stroke="white" stroke-width="45" stroke-linecap="round"/>
<path d="M743 23L743 323" stroke="white" stroke-width="45" stroke-linecap="round"/>
<path d="M863 23.0001L863 23" stroke="white" stroke-width="45" stroke-linecap="round"/>
<path d="M863 83.0001L863 323" stroke="white" stroke-width="45" stroke-linecap="round"/>
<path d="M983 67L983 323" stroke="white" stroke-width="45" stroke-linecap="round"/>
<path d="M1103 93L1103 323" stroke="white" stroke-width="45" stroke-linecap="round"/>
<path d="M1223 23.0001L1223 23" stroke="white" stroke-width="45" stroke-linecap="round"/>
<path d="M1223 83.0001L1223 323" stroke="white" stroke-width="45" stroke-linecap="round"/>
</svg>
