<svg width="1217" height="189" viewBox="0 0 1217 189" fill="none" xmlns="http://www.w3.org/2000/svg">
<path d="M0 176.055V12.9452C0 5.43698 5.84941 1.55342 11.4445 1.55342C17.0396 1.55342 22.6347 5.43698 22.6347 12.9452V176.055C22.6347 183.304 17.0396 187.447 11.4445 187.447C5.84941 187.447 0 183.563 0 176.055Z" fill="white" fill-opacity="0.1"/>
<path d="M63.0839 176.055V13.9808C63.0839 6.73151 66.8987 2.58904 74.274 2.58904H125.647C162.27 2.58904 189.736 22.7836 189.736 62.137C189.736 100.714 162.524 122.462 124.376 122.462H85.7186V176.055C85.7186 182.268 80.6321 187.447 74.5284 187.447C68.1703 187.447 63.0839 182.268 63.0839 176.055ZM85.7186 23.5603V101.232H125.647C149.299 101.232 166.847 88.8041 166.847 62.6548C166.847 36.5055 149.299 23.5603 125.647 23.5603H85.7186Z" fill="white" fill-opacity="0.1"/>
<path d="M218.807 176.055V12.9452C218.807 5.43698 224.656 1.55342 230.251 1.55342C235.846 1.55342 241.441 5.43698 241.441 12.9452V83.3671H335.541V12.9452C335.541 5.43698 341.39 1.55342 346.985 1.55342C352.58 1.55342 358.43 5.43698 358.43 12.9452V176.055C358.43 183.304 352.58 187.188 346.985 187.188C341.39 187.188 335.541 183.304 335.541 176.055V103.821H241.441V176.055C241.441 183.304 235.846 187.188 230.251 187.188C224.656 187.188 218.807 183.304 218.807 176.055Z" fill="white" fill-opacity="0.1"/>
<path d="M480.512 189C428.376 189 389.211 148.093 389.211 94.5C389.211 40.9068 428.376 0 480.512 0C532.394 0 571.56 40.9068 571.56 94.5C571.56 148.093 532.394 189 480.512 189ZM480.512 167.511C519.424 167.511 548.925 134.889 548.925 94.5C548.925 54.111 519.424 21.489 480.512 21.489C441.347 21.489 411.845 54.111 411.845 94.5C411.845 134.889 441.347 167.511 480.512 167.511Z" fill="white" fill-opacity="0.1"/>
<path d="M736.051 1.55342C742.154 1.55342 747.241 6.73151 747.241 12.6863V173.725C747.241 181.233 740.883 187.447 733.507 187.447C728.93 187.447 724.86 185.116 722.572 181.751L623.131 39.0945C624.149 50.4863 624.403 74.0466 624.403 176.314C624.403 182.268 619.571 187.447 613.467 187.447C607.363 187.447 602.277 182.268 602.277 176.314V15.2753C602.277 7.76712 608.381 1.55342 615.756 1.55342C619.825 1.55342 624.403 3.88356 626.692 7.24931L725.878 150.164C725.369 139.032 724.86 124.274 724.86 12.6863C724.86 6.73151 729.947 1.55342 736.051 1.55342Z" fill="white" fill-opacity="0.1"/>
<path d="M886.747 186.411H799.26C791.63 186.411 787.307 182.01 787.307 174.242V14.7575C787.307 6.99041 791.63 2.58904 799.26 2.58904H886.747C892.342 2.58904 897.174 7.24931 897.174 12.9452C897.174 18.9 892.342 23.5603 886.747 23.5603H809.941V82.5904H870.216C875.556 82.5904 880.134 87.2507 880.134 92.9466C880.134 98.3836 875.556 103.044 870.216 103.044H809.941V165.44H886.747C892.342 165.44 897.174 170.1 897.174 176.055C897.174 181.751 892.342 186.411 886.747 186.411Z" fill="white" fill-opacity="0.1"/>
<path d="M1034.38 165.958H1067.18C1072.53 165.958 1077.1 170.618 1077.1 176.314C1077.1 181.751 1072.53 186.411 1067.18 186.411H978.68C973.339 186.411 968.761 181.751 968.761 176.314C968.761 170.618 973.339 165.958 978.68 165.958H1011.49V26.1493L984.021 35.211C982.749 35.7288 981.732 35.7288 980.715 35.7288C975.374 35.7288 971.813 30.8096 971.813 25.6315C971.813 21.489 974.357 17.0877 979.697 15.5342L1022.17 2.07124C1023.44 1.55342 1024.71 1.55342 1025.98 1.55342C1031.07 1.55342 1034.38 5.43698 1034.38 11.9096V165.958Z" fill="white" fill-opacity="0.1"/>
<path d="M1153.17 189C1115.02 189 1088.82 161.297 1088.82 126.086C1088.82 114.695 1092.13 100.455 1102.05 84.1438L1148.84 6.99041C1151.38 2.84794 1155.2 1.03562 1158.76 1.03562C1164.36 1.03562 1169.7 4.91918 1169.7 11.1329C1169.7 13.2041 1169.19 15.2753 1167.66 17.8644L1134.85 70.4219C1141.72 66.5384 1148.33 64.2082 1158.76 64.2082C1191.82 64.2082 1217 89.5808 1217 125.051C1217 161.297 1190.8 189 1153.17 189ZM1153.17 167.511C1176.82 167.511 1194.11 149.388 1194.11 125.051C1194.11 100.455 1176.82 82.5904 1153.17 82.5904C1128.75 82.5904 1111.46 100.455 1111.46 125.051C1111.46 149.647 1129.26 167.511 1153.17 167.511Z" fill="white" fill-opacity="0.1"/>
</svg>
