<svg width="500" height="237" viewBox="0 0 500 237" fill="none" xmlns="http://www.w3.org/2000/svg">
<path d="M132.212 123.657C132.212 132.044 138.807 136.326 144.868 136.326C151.106 136.326 157.523 132.044 157.523 123.657V12.6691C157.523 4.2825 151.106 0 144.868 0C138.629 0 132.212 4.2825 132.212 12.6691V123.657Z" fill="white"/>
<path d="M267.505 81.9028C264.474 57.8137 247.897 39.7915 220.09 39.7915C192.104 39.7915 172.14 60.6687 172.14 88.6834C172.14 117.59 192.996 136.861 221.694 136.861C236.667 136.861 248.61 130.795 257.701 120.802C260.018 118.304 260.909 115.627 260.909 113.308C260.909 107.419 255.74 102.602 250.036 102.602C247.184 102.602 244.332 103.672 241.836 106.706C237.024 112.416 230.607 115.984 221.872 115.984C208.86 115.984 198.343 107.598 197.274 95.8209H255.205C262.87 95.8209 267.683 92.0737 267.683 84.5793C267.683 83.6871 267.683 82.795 267.505 81.9028ZM220.09 60.1334C232.567 60.1334 242.015 67.8062 243.084 79.0478H197.274C197.987 67.8062 207.612 60.1334 220.09 60.1334Z" fill="white"/>
<path d="M316.078 136.326C323.921 136.326 330.517 131.508 333.19 124.549L359.037 57.4568C359.75 55.8509 359.928 54.245 359.928 52.8175C359.928 45.68 353.155 40.8622 346.559 40.8622C342.103 40.8622 337.29 42.825 334.973 49.6056C321.961 87.4343 318.396 99.0328 316.257 110.274C313.583 99.5681 308.948 85.8284 296.114 48.8919C294.153 43.1818 289.519 40.6837 284.706 40.6837C278.111 40.6837 271.337 45.5015 271.337 52.9959C271.337 54.6018 271.694 56.3862 272.407 58.1706L299.144 124.906C301.818 131.508 308.414 136.326 316.078 136.326Z" fill="white"/>
<path d="M458.812 81.9028C455.782 57.8137 439.204 39.7915 411.397 39.7915C383.412 39.7915 363.447 60.6687 363.447 88.6834C363.447 117.59 384.303 136.861 413.001 136.861C427.974 136.861 439.917 130.795 449.008 120.802C451.325 118.304 452.217 115.627 452.217 113.308C452.217 107.419 447.047 102.602 441.343 102.602C438.491 102.602 435.639 103.672 433.144 106.706C428.331 112.416 421.914 115.984 413.18 115.984C400.167 115.984 389.65 107.598 388.581 95.8209H446.513C454.177 95.8209 458.99 92.0737 458.99 84.5793C458.99 83.6871 458.99 82.795 458.812 81.9028ZM411.397 60.1334C423.875 60.1334 433.322 67.8062 434.391 79.0478H388.581C389.294 67.8062 398.919 60.1334 411.397 60.1334Z" fill="white"/>
<path d="M473.745 123.657C473.745 132.044 480.34 136.326 486.401 136.326C492.639 136.326 499.056 132.044 499.056 123.657V12.6691C499.056 4.2825 492.639 0 486.401 0C480.162 0 473.745 4.2825 473.745 12.6691V123.657Z" fill="white"/>
<path d="M100.297 32.5046C108.103 32.5046 114.49 26.0766 114.49 18.2201C114.49 10.3636 108.103 3.93555 100.297 3.93555C92.4904 3.93555 86.1034 10.3636 86.1034 18.2201C86.1034 26.0766 92.4904 32.5046 100.297 32.5046ZM87.7001 123.747C87.7001 132.139 94.2646 136.424 100.297 136.424C106.684 136.424 112.893 131.961 112.893 123.747V53.2171C112.893 45.0035 106.684 40.5396 100.297 40.5396C94.0872 40.5396 87.7001 45.0035 87.7001 53.2171V123.747Z" fill="#8A61FF"/>
<rect x="43.0521" y="60.7788" width="25.3298" height="75.2082" rx="12.6649" fill="#8A61FF"/>
<rect x="0.000808716" y="80.8926" width="25.3298" height="55.0944" rx="12.6649" fill="#8A61FF"/>
<path d="M3.20081 220.169V194.619C3.20081 193.443 4.13245 192.834 5.02359 192.834C5.91473 192.834 6.80587 193.443 6.80587 194.619V205.65H21.7932V194.619C21.7932 193.443 22.7249 192.834 23.616 192.834C24.5071 192.834 25.4388 193.443 25.4388 194.619V220.169C25.4388 221.305 24.5071 221.913 23.616 221.913C22.7249 221.913 21.7932 221.305 21.7932 220.169V208.854H6.80587V220.169C6.80587 221.305 5.91473 221.913 5.02359 221.913C4.13245 221.913 3.20081 221.305 3.20081 220.169Z" fill="white"/>
<path d="M50.8375 200.824C51.7287 200.824 52.6198 201.392 52.6198 202.568V220.25C52.6198 221.386 51.7287 221.994 50.8375 221.994C49.9464 221.994 49.0147 221.386 49.0147 220.25V216.884C47.7995 219.966 44.8021 222.197 40.5489 222.197C34.1894 222.197 30.0983 217.371 30.0983 211.287C30.0983 205.082 34.3109 200.459 40.7109 200.459C44.316 200.459 47.435 202.324 49.0147 205.407V202.568C49.0147 201.392 49.9464 200.824 50.8375 200.824ZM41.359 219.033C45.8147 219.033 49.0147 215.667 49.0147 211.328C49.0147 207.029 45.8147 203.663 41.359 203.663C36.9033 203.663 33.6628 206.867 33.6628 211.328C33.6628 215.789 36.9033 219.033 41.359 219.033Z" fill="white"/>
<path d="M72.7616 201.878C73.0856 201.067 73.7337 200.702 74.4223 200.702C75.354 200.702 76.2451 201.351 76.2451 202.365C76.2451 202.649 76.2046 202.892 76.0831 203.176L64.8628 230.186C64.5388 230.957 63.8502 231.322 63.2021 231.322C62.3109 231.322 61.4603 230.673 61.4603 229.7C61.4603 229.497 61.5008 229.254 61.6223 228.97L64.5388 221.872L56.4375 203.217C56.316 202.973 56.2755 202.73 56.2755 202.487C56.2755 201.473 57.2476 200.743 58.2198 200.743C58.8679 200.743 59.516 201.067 59.84 201.878C63.4856 210.841 64.4578 213.315 66.4021 218.344C68.5084 212.747 69.5211 210.152 72.7616 201.878Z" fill="white"/>
<path d="M88.6258 222.197C82.3068 222.197 77.5271 217.533 77.5271 211.328C77.5271 205.123 82.3068 200.459 88.6258 200.459C94.9853 200.459 99.7245 205.123 99.7245 211.328C99.7245 217.533 94.9853 222.197 88.6258 222.197ZM88.6258 218.993C92.96 218.993 96.2815 215.667 96.2815 211.287C96.2815 206.988 93.0005 203.663 88.6258 203.663C84.2916 203.663 80.9701 206.988 80.9701 211.287C80.9701 215.667 84.3321 218.993 88.6258 218.993Z" fill="white"/>
<path d="M108.608 200.905H111.808C112.577 200.905 113.225 201.554 113.225 202.324C113.225 203.095 112.537 203.703 111.808 203.703H108.608V220.21C108.608 221.345 107.717 221.953 106.866 221.953C105.975 221.953 105.084 221.345 105.084 220.21V203.703H103.22C102.451 203.703 101.803 203.054 101.803 202.324C101.803 201.554 102.451 200.905 103.22 200.905H105.084V196.484C105.084 195.308 106.015 194.74 106.866 194.74C107.717 194.74 108.608 195.308 108.608 196.484V200.905Z" fill="white"/>
<path d="M127.769 200.459C132.185 200.459 136.154 203.095 136.154 209.503V220.128C136.154 221.345 135.263 221.953 134.372 221.953C133.481 221.953 132.59 221.305 132.59 220.128V209.989C132.59 205.123 129.754 203.541 126.757 203.541C122.909 203.541 120.519 206.055 120.438 210.354V220.169C120.438 221.305 119.547 221.953 118.656 221.953C117.764 221.953 116.873 221.305 116.873 220.169V202.527C116.873 201.351 117.764 200.743 118.656 200.743C119.547 200.743 120.438 201.31 120.438 202.527V204.798C121.775 202.04 124.245 200.459 127.769 200.459Z" fill="white"/>
<path d="M142.785 197.782C141.57 197.782 140.557 196.768 140.557 195.551C140.557 194.294 141.57 193.28 142.785 193.28C144.041 193.28 145.054 194.294 145.054 195.551C145.054 196.768 144.041 197.782 142.785 197.782ZM141.003 220.21V202.487C141.003 201.31 141.935 200.743 142.785 200.743C143.676 200.743 144.568 201.31 144.568 202.487V220.21C144.568 221.345 143.676 221.953 142.785 221.953C141.935 221.953 141.003 221.345 141.003 220.21Z" fill="white"/>
<path d="M160.602 200.459C165.017 200.459 168.987 203.095 168.987 209.503V220.128C168.987 221.345 168.095 221.953 167.204 221.953C166.313 221.953 165.422 221.305 165.422 220.128V209.989C165.422 205.123 162.587 203.541 159.589 203.541C155.741 203.541 153.351 206.055 153.27 210.354V220.169C153.27 221.305 152.379 221.953 151.488 221.953C150.597 221.953 149.706 221.305 149.706 220.169V202.527C149.706 201.351 150.597 200.743 151.488 200.743C152.379 200.743 153.27 201.31 153.27 202.527V204.798C154.607 202.04 157.078 200.459 160.602 200.459Z" fill="white"/>
<path d="M193.44 200.743C194.291 200.743 195.182 201.31 195.182 202.487V219.926C195.182 227.51 190.807 231.646 184.043 231.646C181.167 231.646 178.048 230.835 175.942 229.537C175.213 229.091 174.888 228.442 174.888 227.875C174.888 227.145 175.375 226.577 176.225 226.577C176.468 226.577 176.752 226.617 177.035 226.739C178.291 227.226 180.519 228.564 183.8 228.564C188.782 228.564 191.618 225.685 191.618 219.926V216.884C190.402 219.966 187.405 222.197 183.152 222.197C176.792 222.197 172.701 217.371 172.701 211.287C172.701 205.082 176.914 200.459 183.314 200.459C186.919 200.459 190.038 202.324 191.618 205.407V202.608C191.618 201.351 192.549 200.743 193.44 200.743ZM183.962 219.033C188.418 219.033 191.618 215.667 191.618 211.328C191.618 207.029 188.418 203.663 183.962 203.663C179.506 203.663 176.266 206.867 176.266 211.328C176.266 215.789 179.506 219.033 183.962 219.033Z" fill="white"/>
<path d="M224.502 201.878C224.826 201.067 225.474 200.702 226.163 200.702C227.094 200.702 227.986 201.351 227.986 202.365C227.986 202.649 227.945 202.892 227.824 203.176L216.603 230.186C216.279 230.957 215.591 231.322 214.943 231.322C214.051 231.322 213.201 230.673 213.201 229.7C213.201 229.497 213.241 229.254 213.363 228.97L216.279 221.872L208.178 203.217C208.057 202.973 208.016 202.73 208.016 202.487C208.016 201.473 208.988 200.743 209.96 200.743C210.608 200.743 211.256 201.067 211.581 201.878C215.226 210.841 216.198 213.315 218.143 218.344C220.249 212.747 221.262 210.152 224.502 201.878Z" fill="white"/>
<path d="M250.007 200.824C250.898 200.824 251.789 201.392 251.789 202.568V220.25C251.789 221.386 250.898 221.994 250.007 221.994C249.116 221.994 248.184 221.386 248.184 220.25V216.884C246.969 219.966 243.971 222.197 239.718 222.197C233.359 222.197 229.268 217.371 229.268 211.287C229.268 205.082 233.48 200.459 239.88 200.459C243.485 200.459 246.604 202.324 248.184 205.407V202.568C248.184 201.392 249.116 200.824 250.007 200.824ZM240.528 219.033C244.984 219.033 248.184 215.667 248.184 211.328C248.184 207.029 244.984 203.663 240.528 203.663C236.073 203.663 232.832 206.867 232.832 211.328C232.832 215.789 236.073 219.033 240.528 219.033Z" fill="white"/>
<path d="M267.88 200.459C272.295 200.459 276.265 203.095 276.265 209.503V220.128C276.265 221.345 275.374 221.953 274.483 221.953C273.592 221.953 272.7 221.305 272.7 220.128V209.989C272.7 205.123 269.865 203.541 266.868 203.541C263.019 203.541 260.63 206.055 260.549 210.354V220.169C260.549 221.305 259.657 221.953 258.766 221.953C257.875 221.953 256.984 221.305 256.984 220.169V202.527C256.984 201.351 257.875 200.743 258.766 200.743C259.657 200.743 260.549 201.31 260.549 202.527V204.798C261.885 202.04 264.356 200.459 267.88 200.459Z" fill="white"/>
<path d="M300.719 200.743C301.569 200.743 302.461 201.31 302.461 202.487V219.926C302.461 227.51 298.086 231.646 291.321 231.646C288.445 231.646 285.326 230.835 283.22 229.537C282.491 229.091 282.167 228.442 282.167 227.875C282.167 227.145 282.653 226.577 283.504 226.577C283.747 226.577 284.03 226.617 284.314 226.739C285.569 227.226 287.797 228.564 291.078 228.564C296.061 228.564 298.896 225.685 298.896 219.926V216.884C297.681 219.966 294.683 222.197 290.43 222.197C284.071 222.197 279.98 217.371 279.98 211.287C279.98 205.082 284.192 200.459 290.592 200.459C294.197 200.459 297.316 202.324 298.896 205.407V202.608C298.896 201.351 299.828 200.743 300.719 200.743ZM291.24 219.033C295.696 219.033 298.896 215.667 298.896 211.328C298.896 207.029 295.696 203.663 291.24 203.663C286.785 203.663 283.544 206.867 283.544 211.328C283.544 215.789 286.785 219.033 291.24 219.033Z" fill="white"/>
<path d="M309.439 197.782C308.224 197.782 307.211 196.768 307.211 195.551C307.211 194.294 308.224 193.28 309.439 193.28C310.694 193.28 311.707 194.294 311.707 195.551C311.707 196.768 310.694 197.782 309.439 197.782ZM307.657 220.21V202.487C307.657 201.31 308.588 200.743 309.439 200.743C310.33 200.743 311.221 201.31 311.221 202.487V220.21C311.221 221.345 310.33 221.953 309.439 221.953C308.588 221.953 307.657 221.345 307.657 220.21Z" fill="white"/>
<path d="M345.101 191.212C345.951 191.212 346.883 191.78 346.883 192.956V220.21C346.883 221.345 345.992 221.953 345.101 221.953C344.25 221.953 343.319 221.345 343.319 220.21V216.884C342.103 219.966 339.106 222.197 334.853 222.197C328.493 222.197 324.402 217.371 324.402 211.287C324.402 205.082 328.615 200.459 335.015 200.459C338.62 200.459 341.739 202.324 343.319 205.407V192.956C343.319 191.78 344.25 191.212 345.101 191.212ZM335.663 219.033C340.119 219.033 343.319 215.667 343.319 211.328C343.319 207.029 340.119 203.663 335.663 203.663C331.207 203.663 327.967 206.867 327.967 211.328C327.967 215.789 331.207 219.033 335.663 219.033Z" fill="white"/>
<path d="M371.684 200.824C372.575 200.824 373.466 201.392 373.466 202.568V220.25C373.466 221.386 372.575 221.994 371.684 221.994C370.793 221.994 369.861 221.386 369.861 220.25V216.884C368.646 219.966 365.649 222.197 361.395 222.197C355.036 222.197 350.945 217.371 350.945 211.287C350.945 205.082 355.157 200.459 361.557 200.459C365.163 200.459 368.281 202.324 369.861 205.407V202.568C369.861 201.392 370.793 200.824 371.684 200.824ZM362.206 219.033C366.661 219.033 369.861 215.667 369.861 211.328C369.861 207.029 366.661 203.663 362.206 203.663C357.75 203.663 354.509 206.867 354.509 211.328C354.509 215.789 357.75 219.033 362.206 219.033Z" fill="white"/>
<path d="M387.978 200.783C389.274 200.783 389.76 201.513 389.76 202.243C389.76 202.892 389.355 203.947 387.735 203.906C384.251 203.825 382.185 205.69 382.185 208.894V220.21C382.185 221.345 381.294 221.953 380.444 221.953C379.552 221.953 378.661 221.345 378.661 220.21V202.487C378.661 201.351 379.552 200.743 380.444 200.743C381.294 200.743 382.185 201.31 382.185 202.487V204.19C383.198 202.162 385.061 200.783 387.978 200.783Z" fill="white"/>
<path d="M411.36 200.824C412.251 200.824 413.142 201.392 413.142 202.568V220.25C413.142 221.386 412.251 221.994 411.36 221.994C410.469 221.994 409.537 221.386 409.537 220.25V216.884C408.322 219.966 405.324 222.197 401.071 222.197C394.712 222.197 390.62 217.371 390.62 211.287C390.62 205.082 394.833 200.459 401.233 200.459C404.838 200.459 407.957 202.324 409.537 205.407V202.568C409.537 201.392 410.469 200.824 411.36 200.824ZM401.881 219.033C406.337 219.033 409.537 215.667 409.537 211.328C409.537 207.029 406.337 203.663 401.881 203.663C397.425 203.663 394.185 206.867 394.185 211.328C394.185 215.789 397.425 219.033 401.881 219.033Z" fill="white"/>
<path d="M420.119 197.782C418.904 197.782 417.891 196.768 417.891 195.551C417.891 194.294 418.904 193.28 420.119 193.28C421.375 193.28 422.388 194.294 422.388 195.551C422.388 196.768 421.375 197.782 420.119 197.782ZM418.337 229.619V202.487C418.337 201.31 419.269 200.743 420.119 200.743C421.01 200.743 421.901 201.31 421.901 202.487V229.619C421.901 230.795 421.01 231.403 420.119 231.403C419.269 231.403 418.337 230.835 418.337 229.619Z" fill="white"/>
<path d="M446.644 200.824C447.536 200.824 448.427 201.392 448.427 202.568V220.25C448.427 221.386 447.536 221.994 446.644 221.994C445.753 221.994 444.822 221.386 444.822 220.25V216.884C443.606 219.966 440.609 222.197 436.356 222.197C429.996 222.197 425.905 217.371 425.905 211.287C425.905 205.082 430.118 200.459 436.518 200.459C440.123 200.459 443.242 202.324 444.822 205.407V202.568C444.822 201.392 445.753 200.824 446.644 200.824ZM437.166 219.033C441.622 219.033 444.822 215.667 444.822 211.328C444.822 207.029 441.622 203.663 437.166 203.663C432.71 203.663 429.47 206.867 429.47 211.328C429.47 215.789 432.71 219.033 437.166 219.033Z" fill="white"/>
<path d="M461.075 222.197C457.065 222.197 454.351 220.656 452.893 218.141C452.65 217.736 452.569 217.33 452.569 216.965C452.569 215.951 453.338 215.221 454.148 215.221C454.675 215.221 455.201 215.505 455.566 216.195C456.7 218.303 458.442 219.358 461.115 219.358C463.87 219.358 465.652 218.222 465.652 216.316C465.652 211.449 453.014 213.761 453.014 206.461C453.014 202.77 456.295 200.499 460.589 200.499C463.789 200.499 466.584 202 467.88 204.109C468.123 204.514 468.244 204.92 468.244 205.285C468.244 206.177 467.596 206.907 466.867 206.907C466.381 206.907 465.895 206.623 465.45 206.015C464.153 204.19 462.574 203.257 460.548 203.257C458.239 203.257 456.457 204.393 456.457 206.177C456.457 210.922 469.217 208.408 469.217 216.073C469.217 220.047 465.855 222.197 461.075 222.197Z" fill="white"/>
<path d="M474.945 197.782C473.73 197.782 472.717 196.768 472.717 195.551C472.717 194.294 473.73 193.28 474.945 193.28C476.201 193.28 477.213 194.294 477.213 195.551C477.213 196.768 476.201 197.782 474.945 197.782ZM473.163 220.21V202.487C473.163 201.31 474.094 200.743 474.945 200.743C475.836 200.743 476.727 201.31 476.727 202.487V220.21C476.727 221.345 475.836 221.953 474.945 221.953C474.094 221.953 473.163 221.345 473.163 220.21Z" fill="white"/>
<path d="M484.579 214.288C483.688 214.288 482.959 213.558 482.959 212.666L482.838 194.619C482.838 193.726 483.567 192.794 484.579 192.794C485.632 192.794 486.362 193.726 486.362 194.619L486.24 212.666C486.24 213.558 485.511 214.288 484.579 214.288ZM484.62 222.197C483.405 222.197 482.432 221.223 482.432 220.007C482.432 218.831 483.405 217.857 484.62 217.857C485.794 217.857 486.767 218.831 486.767 220.007C486.767 221.223 485.794 222.197 484.62 222.197Z" fill="white"/>
<line y1="168.195" x2="500" y2="168.195" stroke="url(#paint0_radial_619_100)" stroke-width="2"/>
<defs>
<radialGradient id="paint0_radial_619_100" cx="0" cy="0" r="1" gradientUnits="userSpaceOnUse" gradientTransform="translate(250 169.695) scale(250 197.5)">
<stop stop-color="white"/>
<stop offset="1" stop-color="white" stop-opacity="0"/>
</radialGradient>
</defs>
</svg>
