<svg width="429" height="150" viewBox="0 0 429 150" fill="none" xmlns="http://www.w3.org/2000/svg">
<path d="M77.4105 71.3014C91.7838 76.0274 101.434 87.9452 101.434 106.233C101.434 129.658 82.7492 150 51.7439 150C24.2293 150 4.10666 133.151 0.205333 113.014C0 111.986 0 110.959 0 110.137C0 103.562 4.92799 99.6575 9.23999 99.6575C12.5253 99.6575 15.6053 101.712 16.4266 106.233C19.5066 122.26 33.0586 133.356 50.7173 133.356C71.2505 133.356 83.1599 121.027 83.1599 105.822C83.1599 89.7945 70.8399 80.7534 49.4853 80.7534H43.3253C38.1919 80.7534 35.7279 76.6438 35.7279 72.9452C35.7279 68.8356 38.3973 64.9315 43.7359 64.9315H49.8959C67.5546 64.9315 77.4105 53.8356 77.4105 40.4795C77.4105 26.3014 65.9119 16.6438 49.2799 16.6438C32.2373 16.6438 21.7653 28.3562 18.48 43.3562C17.6586 47.4658 14.784 49.3151 11.9093 49.3151C7.18666 49.3151 2.25866 45.2055 2.25866 38.8356C2.25866 37.8082 2.464 36.7808 2.66933 35.7534C6.77599 17.0548 23.6133 0 49.8959 0C77.4105 0 95.6852 16.2329 95.6852 39.2466C95.6852 54.0411 88.0879 64.726 77.4105 71.3014Z" fill="white" fill-opacity="0.1"/>
<path d="M173.575 150C145.445 150 119.983 130.274 119.983 98.2192V51.7808C119.983 19.726 145.445 0 173.575 0C201.706 0 227.167 19.726 227.167 51.7808V98.2192C227.167 130.274 201.706 150 173.575 150ZM173.575 132.945C192.877 132.945 208.893 118.562 208.893 98.2192V51.7808C208.893 31.4384 192.877 17.0548 173.575 17.0548C154.274 17.0548 138.258 31.4384 138.258 51.7808V98.2192C138.258 118.562 154.274 132.945 173.575 132.945Z" fill="white" fill-opacity="0.1"/>
<path d="M286.088 77.8767C263.502 77.8767 246.459 61.4384 246.459 39.2466C246.459 17.0548 263.502 0.616443 286.088 0.616443C308.675 0.616443 325.512 17.0548 325.512 39.2466C325.512 61.4384 308.47 77.8767 286.088 77.8767ZM375.408 10.8904L312.576 144.658C311.139 147.534 308.675 148.767 306.211 148.767C302.72 148.767 299.024 146.096 299.024 142.397C299.024 141.37 299.23 140.342 299.846 139.11L362.883 5.34247C364.115 2.46576 366.784 1.23287 369.248 1.23287C372.739 1.23287 376.229 3.69863 376.229 7.60274C376.229 8.63014 376.024 9.65753 375.408 10.8904ZM286.088 64.726C300.667 64.726 311.755 53.6301 311.755 39.0411C311.755 24.6575 300.872 13.5616 286.088 13.5616C271.715 13.5616 260.422 24.4521 260.422 39.0411C260.422 53.8356 271.715 64.726 286.088 64.726ZM389.576 150C366.989 150 349.947 133.562 349.947 111.37C349.947 89.3836 366.989 72.7397 389.576 72.7397C412.163 72.7397 429 89.3836 429 111.37C429 133.562 412.163 150 389.576 150ZM389.576 137.055C404.155 137.055 415.243 125.959 415.243 111.37C415.243 96.7808 404.155 85.6849 389.576 85.6849C375.203 85.6849 363.909 96.7808 363.909 111.37C363.909 125.959 375.203 137.055 389.576 137.055Z" fill="white" fill-opacity="0.1"/>
</svg>
