<svg width="573" height="153" viewBox="0 0 573 153" fill="none" xmlns="http://www.w3.org/2000/svg">
<path d="M54.1783 134.347H81.2675C85.6774 134.347 89.4572 138.119 89.4572 142.73C89.4572 147.132 85.6774 150.904 81.2675 150.904H8.18975C3.77988 150.904 0 147.132 0 142.73C0 138.119 3.77988 134.347 8.18975 134.347H35.2789V21.1685L12.5996 28.5041C11.5496 28.9233 10.7097 28.9233 9.8697 28.9233C5.45983 28.9233 2.51992 24.9411 2.51992 20.7493C2.51992 17.3959 4.61986 13.8329 9.02972 12.5753L44.0986 1.67672C45.1486 1.25753 46.1986 1.25753 47.2485 1.25753C51.4484 1.25753 54.1783 4.40136 54.1783 9.6411V134.347Z" fill="white" fill-opacity="0.1"/>
<path d="M154.836 153C126.067 153 100.027 132.879 100.027 100.184V52.8164C100.027 20.1206 126.067 0 154.836 0C183.605 0 209.644 20.1206 209.644 52.8164V100.184C209.644 132.879 183.605 153 154.836 153ZM154.836 135.604C174.575 135.604 190.955 120.933 190.955 100.184V52.8164C190.955 32.0671 174.575 17.3959 154.836 17.3959C135.096 17.3959 118.717 32.0671 118.717 52.8164V100.184C118.717 120.933 135.096 135.604 154.836 135.604Z" fill="white" fill-opacity="0.1"/>
<path d="M286.492 153C257.723 153 231.684 132.879 231.684 100.184V52.8164C231.684 20.1206 257.723 0 286.492 0C315.261 0 341.3 20.1206 341.3 52.8164V100.184C341.3 132.879 315.261 153 286.492 153ZM286.492 135.604C306.231 135.604 322.611 120.933 322.611 100.184V52.8164C322.611 32.0671 306.231 17.3959 286.492 17.3959C266.752 17.3959 250.373 32.0671 250.373 52.8164V100.184C250.373 120.933 266.752 135.604 286.492 135.604Z" fill="white" fill-opacity="0.1"/>
<path d="M418.148 153C389.379 153 363.34 132.879 363.34 100.184V52.8164C363.34 20.1206 389.379 0 418.148 0C446.917 0 472.956 20.1206 472.956 52.8164V100.184C472.956 132.879 446.917 153 418.148 153ZM418.148 135.604C437.887 135.604 454.267 120.933 454.267 100.184V52.8164C454.267 32.0671 437.887 17.3959 418.148 17.3959C398.409 17.3959 382.029 32.0671 382.029 52.8164V100.184C382.029 120.933 398.409 135.604 418.148 135.604Z" fill="white" fill-opacity="0.1"/>
<path d="M541.824 85.9315H564.084C568.494 85.9315 572.483 89.7041 572.483 94.3151C572.483 98.7164 568.703 102.489 564.084 102.489H541.824V124.915C541.824 129.736 537.624 133.718 532.795 133.718C527.965 133.718 523.975 129.736 523.975 124.915V102.489H501.296C496.886 102.489 493.106 98.7164 493.106 94.3151C493.106 89.7041 496.886 85.9315 501.296 85.9315H523.975V63.5055C523.975 58.6849 527.965 54.7027 532.795 54.7027C537.624 54.7027 541.824 58.6849 541.824 63.5055V85.9315Z" fill="white" fill-opacity="0.1"/>
</svg>
